<?xml version="1.0" encoding="UTF-8"?>
<svg width="18px" height="18px" viewBox="0 0 18 18" version="1.1" xmlns="http://www.w3.org/2000/svg" xmlns:xlink="http://www.w3.org/1999/xlink">
    <!-- Generator: Sketch 52 (66869) - http://www.bohemiancoding.com/sketch -->
    <title>Imported Layers</title>
    <desc>Created with Sketch.</desc>
    <g id="Page-1" stroke="none" stroke-width="1" fill="none" fill-rule="evenodd">
        <g id="Signup" transform="translate(-385.000000, -223.000000)" fill="#FFFFFF">
            <g id="Left" transform="translate(117.000000, 44.000000)">
                <g id="g+" transform="translate(256.000000, 162.000000)">
                    <path d="M17.5241538,17 L22.0624615,17 L22.0624615,17.081 C22.0624615,17.6072632 21.1546154,17.6887368 20.5232308,17.81 C20.3261538,17.81 19.8918462,17.8502632 19.7736923,17.9312632 C20.9178462,18.539 21.1153846,19.5512632 21.1153846,21.0092632 C21.1153846,22.7102632 20.484,23.6012632 19.7736923,24.2085263 C19.3790769,24.6135263 19.0241538,24.8967895 19.0241538,25.3017895 C19.0241538,25.7067895 19.4972308,26.1117895 20.01,26.5977895 C20.8781538,27.3675263 22.0624615,28.4200526 22.0624615,30.2020526 C22.0624615,32.0650526 21.2732308,33.4013158 19.7736923,34.1307895 C18.5898462,34.7380526 17.3270769,34.8190526 16.8138462,34.8190526 C16.7353846,34.8190526 16.6956923,34.7783158 16.6564615,34.7783158 C16.6564615,34.7783158 16.6167692,34.8190526 16.5775385,34.8190526 C15.8275385,34.8190526 12,34.6163158 12,31.0523158 C12,27.5697895 16.1432308,27.2865263 17.406,27.2865263 L17.4456923,27.2865263 C16.7353846,26.2737895 16.8535385,25.2615263 16.8535385,25.2615263 L16.5775385,25.2615263 C16.1035385,25.2615263 15.1966154,25.1805263 14.4073846,24.6542632 C13.4206154,24.0465263 12.9470769,22.9532632 12.9470769,21.4142632 C12.9470769,17.162 17.4849231,17 17.5241538,17 L17.5241538,17 Z M17.3667692,28.2177895 L17.0506154,28.2177895 C16.1824615,28.2585263 15.3932308,28.6227895 14.8015385,29.1490526 C14.2495385,29.6757895 13.9333846,30.3640526 13.9730769,31.0523158 C14.0912308,32.4700526 15.5515385,33.2800526 17.3667692,33.1583158 C19.1418462,33.0370526 20.3653846,31.9840526 20.2472308,30.5663158 C20.1683077,29.1897895 19.0633846,28.2177895 17.3667692,28.2177895 L17.3667692,28.2177895 Z M16.6564615,18.2552632 C16.5378462,18.2552632 16.4196923,18.2552632 16.2613846,18.296 C15.7486154,18.4575263 15.354,18.9032632 15.1176923,19.5512632 C14.9201538,20.1992632 14.8804615,20.8875263 15.078,21.6975263 C15.4329231,23.0745263 16.4196923,24.0867895 17.406,24.0867895 C17.5241538,24.0867895 17.6427692,24.0867895 17.7609231,24.0465263 C18.8658462,23.7225263 19.5369231,22.0622632 19.0633846,20.4422632 C18.5898462,18.7412632 17.8398462,18.2552632 16.6564615,18.2552632 L16.6564615,18.2552632 Z M29.6778462,23.9655263 L29.6778462,25.8687895 L26.7184615,25.8687895 L26.7184615,28.9065263 L24.864,28.9065263 L24.864,25.8687895 L21.9046154,25.8687895 L21.9046154,23.9655263 L24.864,23.9655263 L24.864,20.9282632 L26.7184615,20.9282632 L26.7184615,23.9655263 L29.6778462,23.9655263 L29.6778462,23.9655263 Z" id="Imported-Layers"></path>
                </g>
            </g>
        </g>
    </g>
</svg>