<?xml version="1.0" encoding="UTF-8"?>
<svg width="13px" height="13px" viewBox="0 0 13 13" version="1.1" xmlns="http://www.w3.org/2000/svg" xmlns:xlink="http://www.w3.org/1999/xlink">
    <!-- Generator: Sketch 52 (66869) - http://www.bohemiancoding.com/sketch -->
    <title>_ionicons_svg_ios-search</title>
    <desc>Created with Sketch.</desc>
    <g id="Page-1" stroke="none" stroke-width="1" fill="none" fill-rule="evenodd">
        <g id="WebLandingMain" transform="translate(-1351.000000, -42.000000)" fill="#000000" fill-rule="nonzero">
            <g id="Header">
                <g id="_ionicons_svg_ios-search" transform="translate(1351.000000, 42.000000)">
                    <path d="M12.8474994,12.0590992 L9.23191856,8.41057016 C9.939462,7.52382192 10.3660193,6.40015621 10.3660193,5.17833897 C10.3660193,2.31840666 8.04703719,0 5.18300965,0 C2.31898211,0 0,2.3217912 0,5.18172351 C0,8.04165582 2.31898211,10.3600625 5.18300965,10.3600625 C6.42205702,10.3600625 7.55615776,9.92684197 8.44989685,9.20255142 L12.0417801,12.8273887 C12.1501121,12.9424629 12.2990686,13 12.4446398,13 C12.5834401,13 12.7222405,12.949232 12.8271872,12.8476959 C13.0506219,12.6344702 13.0573927,12.2824785 12.8474994,12.0590992 Z M5.18300965,9.24655038 C4.09630416,9.24655038 3.07392081,8.82348347 2.30544061,8.05519396 C1.5369604,7.28690445 1.11378849,6.2647748 1.11378849,5.18172351 C1.11378849,4.09528769 1.5369604,3.07315803 2.30544061,2.30825306 C3.07392081,1.53996355 4.09630416,1.11689664 5.18300965,1.11689664 C6.26971513,1.11689664 7.29209849,1.53996355 8.06057869,2.30825306 C8.82905889,3.07654257 9.25223081,4.09867222 9.25223081,5.18172351 C9.25223081,6.26815933 8.82905889,7.29028899 8.06057869,8.05519396 C7.29209849,8.82348347 6.26971513,9.24655038 5.18300965,9.24655038 Z" id="Shape"></path>
                </g>
            </g>
        </g>
    </g>
</svg>